{
    "asset" : {
        "generator" : "Khronos glTF Blender I/O v1.1.45",
        "version" : "2.0"
    },
    "scene" : 0,
    "scenes" : [
        {
            "name" : "Scene",
            "nodes" : [
                0
            ]
        }
    ],
    "nodes" : [
        {
            "mesh" : 0,
            "name" : "Plane"
        }
    ],
    "materials" : [
        {
            "doubleSided" : true,
            "emissiveFactor" : [
                0,
                0,
                0
            ],
            "name" : "Material.001",
            "pbrMetallicRoughness" : {
                "baseColorFactor" : [
                    0.054521236568689346,
                    0.3048413395881653,
                    0.5981870293617249,
                    1
                ],
                "metallicFactor" : 0,
                "roughnessFactor" : 0.5
            }
        }
    ],
    "meshes" : [
        {
            "name" : "Plane",
            "primitives" : [
                {
                    "attributes" : {
                        "POSITION" : 0,
                        "NORMAL" : 1,
                        "TEXCOORD_0" : 2
                    },
                    "indices" : 3,
                    "material" : 0
                }
            ]
        }
    ],
    "accessors" : [
        {
            "bufferView" : 0,
            "componentType" : 5126,
            "count" : 51076,
            "max" : [
                25.823623657226562,
                1.4330999851226807,
                25.85365867614746
            ],
            "min" : [
                -25.823623657226562,
                -1.4297969341278076,
                -25.85365867614746
            ],
            "type" : "VEC3"
        },
        {
            "bufferView" : 1,
            "componentType" : 5126,
            "count" : 51076,
            "type" : "VEC3"
        },
        {
            "bufferView" : 2,
            "componentType" : 5126,
            "count" : 51076,
            "type" : "VEC2"
        },
        {
            "bufferView" : 3,
            "componentType" : 5123,
            "count" : 303750,
            "type" : "SCALAR"
        }
    ],
    "bufferViews" : [
        {
            "buffer" : 0,
            "byteLength" : 612912,
            "byteOffset" : 0
        },
        {
            "buffer" : 0,
            "byteLength" : 612912,
            "byteOffset" : 612912
        },
        {
            "buffer" : 0,
            "byteLength" : 408608,
            "byteOffset" : 1225824
        },
        {
            "buffer" : 0,
            "byteLength" : 607500,
            "byteOffset" : 1634432
        }
    ],
    "buffers" : [
        {
            "byteLength" : 2241932,
            "uri" : "data:application/octet-stream;base64,"
        }
    ]
}
